<?xml version="1.0" encoding="UTF-8"?><svg id="Ebene_2" xmlns="http://www.w3.org/2000/svg" viewBox="0 0 121.36 67.7"><defs><style>.cls-1{fill:#fff;}.cls-2{fill:#1717ff;}</style></defs><g id="Ebene_1-2"><path class="cls-2" d="m49.43,0c.79,0,1.45.04,1.99.12s.97.18,1.3.3c.35.14.59.3.73.48.13.18.2.39.2.62,0,.34-.13.62-.39.83-.26.21-.66.32-1.19.32-.36,0-.75-.04-1.17-.11-.42-.07-.84-.19-1.28-.34l.21-.22c.1.55.18,1.17.26,1.84s.14,1.35.2,2.04.1,1.34.13,1.94c.03.61.04,1.13.04,1.55,0,.83-.1,1.46-.31,1.87s-.56.62-1.06.62c-.46,0-.79-.19-.99-.57-.2-.38-.3-.96-.3-1.74,0-.51.02-1.1.07-1.76.05-.66.11-1.34.2-2.05.08-.7.18-1.38.28-2.02s.21-1.21.31-1.69l.29.18c-.23.09-.51.17-.83.25s-.64.14-.96.19c-.32.05-.6.07-.85.07-.54,0-.93-.09-1.15-.26-.22-.18-.34-.41-.34-.71,0-.28.08-.51.26-.71.17-.2.43-.37.78-.52.41-.17.9-.3,1.5-.39.59-.09,1.29-.14,2.09-.14Z"/><path class="cls-2" d="m56.71.32c.29,0,.5.1.65.31.14.21.22.55.22,1.02,0,.59-.07,1.25-.21,1.98s-.34,1.43-.59,2.1l-.26-.16c.8-.18,1.63-.27,2.49-.26.86.01,1.64.12,2.34.32l-.29-.02c-.14-.63-.24-1.25-.31-1.87-.07-.62-.1-1.17-.1-1.65s.07-.86.22-1.07.39-.32.72-.32.61.12.8.36c.19.24.34.62.45,1.13.1.48.18,1.05.26,1.71.08.66.12,1.34.12,2.05,0,.78-.02,1.57-.06,2.38-.04.81-.12,1.56-.24,2.26-.1.55-.25.95-.46,1.2-.21.25-.51.37-.88.37s-.66-.12-.82-.37c-.17-.25-.25-.7-.25-1.38s.05-1.33.15-2.03c.1-.7.24-1.4.42-2.08l.34.5c-.77.17-1.56.25-2.38.25-.82,0-1.62-.09-2.4-.25l.03-.54c.21.67.4,1.36.55,2.06.15.7.23,1.41.23,2.13,0,.59-.12,1.03-.35,1.32-.23.29-.54.44-.91.44-.27,0-.48-.09-.64-.27-.16-.18-.28-.52-.37-1.01-.07-.48-.14-1.08-.19-1.8-.05-.72-.08-1.48-.08-2.28,0-.89.04-1.75.14-2.59s.2-1.56.33-2.16c.13-.61.3-1.06.52-1.34.22-.29.49-.43.82-.43Z"/><path class="cls-2" d="m70.58.46c.62,0,1.1.05,1.46.14.35.09.6.22.75.4.15.18.22.39.22.65,0,.41-.21.71-.62.92-.41.21-1.06.31-1.94.31-.45,0-.95,0-1.52-.02-.57-.02-1.15-.05-1.74-.09l.26-.19c.1.53.12,1.11.08,1.74-.04.62-.16,1.22-.35,1.78l-.08-.11c.25-.03.54-.06.89-.09.35-.03.7-.05,1.07-.06.37-.02.71-.02,1.02-.02.58,0,.98.09,1.22.27.24.18.36.4.36.66,0,.29-.13.53-.38.74-.26.2-.69.3-1.31.3-.52,0-1.04-.04-1.55-.12-.51-.08-1-.23-1.47-.44l.19-.03c.12.31.21.67.26,1.09s.09.83.09,1.24-.04.78-.13,1.1l-.18-.1c.36-.13.78-.24,1.24-.34.46-.1.94-.17,1.42-.22.49-.05.94-.08,1.37-.08.6,0,1.04.06,1.34.19.29.13.44.35.44.66,0,.23-.08.44-.25.62-.17.18-.45.34-.84.49-.26.09-.56.17-.92.25s-.74.14-1.14.19-.8.07-1.19.07c-.68,0-1.25-.09-1.7-.27-.45-.18-.78-.45-.98-.82-.2-.39-.36-.91-.46-1.55s-.16-1.51-.16-2.62c0-1.53.08-2.7.25-3.53.17-.83.38-1.43.63-1.8.27-.36.62-.63,1.07-.82.45-.18.95-.3,1.52-.37s1.16-.1,1.78-.1Z"/><path class="cls-1" d="m5.89,38.73c-1.28,0-2.34-.24-3.18-.73-.84-.49-1.46-1.23-1.88-2.25-.29-.7-.5-1.56-.64-2.56-.13-1-.2-2.15-.2-3.46,0-2.23.07-4.08.22-5.53.14-1.46.36-2.63.64-3.53.28-.9.59-1.63.95-2.19.56-.85,1.45-1.53,2.67-2.05s2.95-.78,5.18-.78c1.49,0,2.68.22,3.58.67.9.44,1.55,1.03,1.95,1.75.4.72.6,1.53.6,2.42,0,1.41-.41,2.56-1.24,3.47-.83.91-1.91,1.63-3.25,2.17v.12c1.47.17,2.61.64,3.43,1.41s1.22,1.88,1.22,3.3c0,1.14-.28,2.18-.85,3.12-.57.94-1.33,1.76-2.29,2.45s-2.04,1.23-3.24,1.61c-1.2.38-2.42.57-3.66.57Zm.96-3.72c.99,0,1.88-.17,2.65-.5.77-.33,1.38-.78,1.83-1.35.44-.57.67-1.21.67-1.94,0-.79-.38-1.44-1.13-1.97-.75-.53-1.93-.79-3.52-.79-1.07,0-1.93.25-2.56.76-.63.51-.95,1.37-.95,2.59s.25,1.98.74,2.46c.5.49,1.25.73,2.26.73Zm.12-9.83c1.41,0,2.58-.31,3.52-.95.94-.63,1.41-1.45,1.41-2.46,0-.74-.3-1.34-.9-1.8-.6-.45-1.48-.68-2.63-.68-1.26,0-2.29.25-3.1.74s-1.21,1.34-1.21,2.54c0,.97.26,1.65.79,2.03s1.23.57,2.12.57Z"/><path class="cls-1" d="m28.86,37.46c-1.98,0-3.72-.36-5.19-1.07-1.48-.71-2.62-1.78-3.44-3.21-.82-1.43-1.22-3.22-1.22-5.39,0-1.78.26-3.39.77-4.84.52-1.45,1.23-2.69,2.15-3.72.92-1.03,1.98-1.82,3.18-2.37,1.2-.55,2.48-.82,3.84-.82s2.61.26,3.81.79c1.2.53,2.26,1.28,3.18,2.25.92.97,1.64,2.14,2.15,3.5.52,1.36.77,2.88.77,4.56,0,2.29-.41,4.21-1.24,5.73-.83,1.53-1.99,2.68-3.49,3.44-1.5.77-3.26,1.15-5.29,1.15Zm.03-4.46c1.65,0,2.98-.51,3.97-1.53.99-1.02,1.49-2.54,1.49-4.54,0-1.38-.27-2.6-.81-3.64-.54-1.04-1.22-1.85-2.06-2.43s-1.7-.87-2.59-.87-1.75.29-2.59.87c-.84.58-1.52,1.39-2.06,2.43s-.81,2.26-.81,3.64c0,2,.5,3.52,1.5,4.54,1,1.02,2.32,1.53,3.95,1.53Z"/><path class="cls-1" d="m51.74,39.85c-2.21,0-4.05-.46-5.5-1.4-1.46-.93-2.54-2.24-3.25-3.92-.71-1.68-1.07-3.65-1.07-5.91s.4-4.19,1.21-5.86,1.98-2.97,3.52-3.89c1.54-.92,3.39-1.38,5.56-1.38,1.45,0,2.75.21,3.91.62,1.16.41,2.08.95,2.76,1.61.68.66,1.02,1.35,1.02,2.08,0,.5-.17.89-.5,1.18s-.81.43-1.43.43-1.18-.09-1.75-.26c-.57-.18-1.19-.35-1.86-.51-.67-.17-1.45-.25-2.34-.25-1.03,0-1.99.2-2.87.59s-1.58,1.05-2.11,1.97c-.53.92-.79,2.17-.79,3.74,0,2.38.52,4.06,1.57,5.05,1.04.99,2.42,1.49,4.14,1.49.66,0,1.36-.06,2.11-.17.74-.11,1.44-.23,2.09-.34.65-.11,1.17-.17,1.57-.17.52,0,.92.11,1.22.34.3.23.45.58.45,1.05,0,.64-.32,1.26-.95,1.86-.63.6-1.52,1.09-2.67,1.47s-2.5.57-4.05.57Z"/><path class="cls-1" d="m65.91,15.79c.6,0,1.05.2,1.36.6.31.4.47,1.06.47,1.97,0,1.14-.13,2.42-.4,3.84-.27,1.43-.65,2.78-1.15,4.06l-.5-.62c1.65-.35,3.37-.52,5.15-.5,1.78.02,3.39.23,4.84.62l-.56.28c-.27-1.38-.47-2.76-.6-4.12-.13-1.36-.2-2.57-.2-3.63,0-.97.14-1.66.43-2.08.29-.41.75-.62,1.4-.62s1.18.23,1.55.7.66,1.19.87,2.19c.23,1.03.41,2.28.54,3.74.13,1.46.2,2.95.2,4.48s-.04,3.05-.12,4.62c-.08,1.57-.24,3.03-.47,4.37-.19,1.07-.49,1.85-.9,2.32-.41.48-.98.71-1.71.71s-1.28-.24-1.6-.71c-.32-.48-.48-1.36-.48-2.67s.1-2.57.29-3.94c.2-1.36.47-2.71.82-4.03l.65.96c-1.57.33-3.21.49-4.91.48-1.71-.01-3.36-.17-4.98-.48l.06-1.05c.41,1.34.8,2.73,1.16,4.15.36,1.43.54,2.85.54,4.28,0,1.14-.2,1.94-.59,2.4-.39.47-.95.7-1.67.7-.62,0-1.12-.18-1.49-.53-.37-.35-.64-1-.81-1.95-.17-.93-.3-2.09-.4-3.49-.1-1.39-.16-2.87-.16-4.42,0-1.84.08-3.63.25-5.36.17-1.74.38-3.22.65-4.46.21-.97.51-1.68.9-2.14.39-.45.91-.68,1.55-.68Z"/><path class="cls-1" d="m90.55,39.45c-2.38,0-4.16-.79-5.36-2.36-1.2-1.57-1.8-3.99-1.8-7.25,0-1.16.05-2.4.14-3.72.09-1.32.22-2.59.37-3.81.15-1.22.33-2.24.51-3.07.19-.87.48-1.55.88-2.06.4-.51.97-.76,1.69-.76.54,0,.95.19,1.22.56.28.37.42.94.42,1.71,0,.48-.06,1.14-.17,1.98-.11.85-.24,1.78-.37,2.79-.13,1.01-.26,2.02-.37,3.02-.11,1-.17,1.91-.17,2.71,0,2.17.3,3.69.9,4.56.6.87,1.47,1.3,2.6,1.3s1.91-.47,2.45-1.41c.54-.94.81-2.42.81-4.45,0-.6-.03-1.29-.08-2.06-.05-.77-.11-1.57-.17-2.37-.06-.81-.12-1.56-.17-2.26-.05-.7-.08-1.27-.08-1.71,0-1.8.53-2.7,1.58-2.7.72,0,1.28.22,1.67.67.39.44.66,1.11.81,2,.23,1.18.4,2.47.51,3.88.11,1.41.17,2.82.17,4.25,0,3.6-.67,6.26-2,7.98-1.33,1.73-3.33,2.59-6,2.59Z"/><path class="cls-1" d="m118.54,39.45c-.43,0-.82-.11-1.16-.34-.34-.23-.6-.62-.79-1.19-.19-.57-.28-1.36-.28-2.37,0-1.47.06-3.04.17-4.73.11-1.68.23-3.39.34-5.11.11-1.73.17-3.39.17-5.01h-.12c-.72,3.31-1.5,5.81-2.32,7.5-.83,1.69-1.75,2.54-2.76,2.54-.62,0-1.19-.31-1.72-.95-.53-.63-1.03-1.69-1.52-3.18-.49-1.49-1.02-3.51-1.6-6.08h-.12c0,1.1.03,2.26.08,3.5.05,1.24.11,2.49.19,3.75.07,1.26.13,2.46.19,3.6.05,1.14.08,2.15.08,3.04,0,.76-.06,1.47-.19,2.11-.12.64-.33,1.15-.62,1.52-.29.37-.69.56-1.21.56-.91,0-1.59-.81-2.03-2.42-.44-1.61-.67-4.28-.67-8,0-2.31.14-4.31.42-6,.28-1.68.7-2.99,1.26-3.91.56-.92,1.25-1.38,2.08-1.38.52,0,1.01.16,1.49.48.48.32.93.85,1.38,1.58.44.73.89,1.71,1.33,2.93.44,1.22.88,2.74,1.32,4.56h.12c.41-1.84.82-3.4,1.21-4.7s.8-2.34,1.21-3.13c.41-.79.85-1.38,1.3-1.75.45-.37.95-.56,1.49-.56.76,0,1.4.31,1.91.95.51.63.91,1.47,1.21,2.53.3,1.05.52,2.23.67,3.53.14,1.3.24,2.63.28,3.98.04,1.35.06,2.64.06,3.86,0,2.03-.12,3.64-.36,4.85-.24,1.21-.56,2.08-.98,2.62-.41.54-.91.81-1.49.81Z"/><path class="cls-2" d="m23.89,66.36c-2.05,0-3.81-.41-5.3-1.24-1.49-.83-2.63-2-3.43-3.53-.8-1.53-1.19-3.35-1.19-5.46,0-2.4.44-4.5,1.32-6.31.88-1.81,2.12-3.22,3.72-4.23,1.6-1.01,3.49-1.52,5.66-1.52,1.57,0,2.99.28,4.26.85s2.36,1.34,3.25,2.32c.9.98,1.59,2.12,2.08,3.41.49,1.29.73,2.67.73,4.14s-.19,2.79-.56,4.01c-.37,1.23-.9,2.24-1.58,3.02l-1.64,1.61c-.76.93-1.78,1.65-3.04,2.15-1.26.51-2.69.76-4.28.76Zm.84-4.4c.85,0,1.64-.12,2.37-.37.73-.25,1.41-.63,2.03-1.15l.93-.77c.23-.54.41-1.15.56-1.83.14-.68.22-1.43.22-2.23,0-2.38-.57-4.21-1.72-5.5-1.15-1.29-2.66-1.94-4.54-1.94-1.18,0-2.22.29-3.12.88-.9.59-1.6,1.41-2.09,2.46-.5,1.05-.74,2.29-.74,3.72s.25,2.55.76,3.57c.51,1.01,1.22,1.79,2.14,2.34.92.55,1.99.82,3.21.82Zm4.34-.68c-1.2-.56-2.14-1.21-2.84-1.95s-1.04-1.41-1.04-1.98c0-.5.14-.87.43-1.13.29-.26.65-.39,1.08-.39.72,0,1.4.34,2.02,1.01.62.67,1.21,1.63,1.77,2.87l-1.43,1.58Zm6.11,5.86c-.7,0-1.44-.33-2.2-.99-.76-.66-1.56-1.61-2.39-2.85l1.89-1.8c1.38.58,2.46,1.22,3.24,1.92.77.7,1.16,1.41,1.16,2.11,0,.41-.15.79-.45,1.12-.3.33-.72.5-1.26.5Z"/><path class="cls-2" d="m45.84,67.45c-2.38,0-4.16-.79-5.36-2.36-1.2-1.57-1.8-3.99-1.8-7.25,0-1.16.05-2.4.14-3.72.09-1.32.22-2.59.37-3.81.15-1.22.33-2.24.51-3.07.19-.87.48-1.55.88-2.06.4-.51.97-.76,1.69-.76.54,0,.95.19,1.22.56.28.37.42.94.42,1.71,0,.48-.06,1.14-.17,1.98-.11.85-.24,1.78-.37,2.79-.13,1.01-.26,2.02-.37,3.02-.11,1-.17,1.91-.17,2.71,0,2.17.3,3.69.9,4.56.6.87,1.47,1.3,2.6,1.3s1.91-.47,2.45-1.41c.54-.94.81-2.42.81-4.45,0-.6-.03-1.29-.08-2.06-.05-.77-.11-1.57-.17-2.37-.06-.81-.12-1.56-.17-2.26-.05-.7-.08-1.27-.08-1.71,0-1.8.53-2.7,1.58-2.7.72,0,1.28.22,1.67.67.39.44.66,1.11.81,2,.23,1.18.4,2.47.51,3.88.11,1.41.17,2.82.17,4.25,0,3.6-.67,6.26-2,7.98-1.33,1.73-3.33,2.59-6,2.59Z"/><path class="cls-2" d="m68.1,44.69c1.2,0,2.14.09,2.82.26.68.18,1.17.43,1.46.77.29.34.43.76.43,1.26,0,.79-.4,1.38-1.19,1.78-.8.4-2.05.6-3.77.6-.87,0-1.85-.02-2.94-.05-1.1-.03-2.22-.09-3.38-.17l.5-.37c.19,1.03.24,2.15.15,3.36-.08,1.21-.31,2.36-.68,3.46l-.15-.22c.48-.06,1.05-.12,1.72-.17s1.36-.09,2.08-.12c.71-.03,1.37-.05,1.97-.05,1.12,0,1.91.18,2.37.53.47.35.7.77.7,1.27,0,.56-.25,1.03-.74,1.43-.5.39-1.34.59-2.54.59-1.01,0-2.01-.08-3.01-.23-.99-.15-1.94-.44-2.85-.85l.37-.06c.23.6.4,1.3.51,2.11.11.81.17,1.61.17,2.4s-.08,1.5-.25,2.12l-.34-.19c.7-.25,1.5-.46,2.4-.65.9-.19,1.82-.33,2.76-.43.94-.1,1.82-.16,2.65-.16,1.16,0,2.02.12,2.59.37.57.25.85.67.85,1.27,0,.46-.16.85-.48,1.19-.32.34-.86.66-1.63.95-.5.17-1.09.33-1.78.48-.69.15-1.43.28-2.2.37-.77.09-1.54.14-2.31.14-1.32,0-2.42-.18-3.3-.53-.88-.35-1.51-.88-1.91-1.58-.39-.76-.69-1.77-.9-3.01-.21-1.24-.31-2.93-.31-5.08,0-2.96.16-5.23.48-6.84s.73-2.76,1.22-3.49c.52-.7,1.21-1.23,2.08-1.58.87-.35,1.85-.59,2.94-.71,1.1-.12,2.24-.19,3.44-.19Z"/><path class="cls-2" d="m81.77,66.67c-.68,0-1.44-.04-2.28-.12-.84-.08-1.64-.24-2.42-.48-.77-.24-1.42-.57-1.92-.99-.51-.42-.76-.98-.76-1.66s.22-1.23.67-1.58c.44-.35,1.17-.53,2.19-.53.7,0,1.49.09,2.37.28.88.19,1.72.28,2.53.28,1.2,0,2.08-.19,2.65-.56s.85-.88.85-1.52c0-.39-.11-.74-.33-1.05-.22-.31-.65-.62-1.29-.93-.64-.31-1.6-.65-2.88-1.02-1.47-.39-2.66-.83-3.57-1.32-.91-.49-1.57-1.07-1.98-1.75-.41-.68-.62-1.49-.62-2.42,0-1.14.2-2.12.6-2.96.4-.84.95-1.55,1.63-2.14.68-.59,1.45-1.06,2.29-1.41.85-.35,1.71-.61,2.59-.77.88-.17,1.72-.25,2.53-.25,1.78,0,3.23.28,4.36.84s1.69,1.3,1.69,2.23c0,.66-.21,1.2-.64,1.61-.42.41-1.07.62-1.94.62-.37,0-.82-.05-1.33-.15-.52-.1-1.08-.21-1.71-.31-.62-.1-1.3-.15-2.05-.15-1.26,0-2.23.2-2.91.59s-1.02,1.02-1.02,1.89c0,.37.1.71.29,1.02.2.31.61.63,1.26.96s1.62.71,2.95,1.15c1.63.5,2.91,1.04,3.84,1.63.93.59,1.59,1.26,1.98,2s.59,1.58.59,2.51c0,1.28-.35,2.41-1.04,3.39-.69.98-1.65,1.74-2.88,2.28-1.23.54-2.66.81-4.29.81Z"/><path class="cls-2" d="m102.01,44.41c.52,0,1.15.03,1.89.08.74.05,1.48.17,2.2.34.72.18,1.33.44,1.81.79.49.35.73.83.73,1.43,0,.52-.25.94-.76,1.27s-1.28.5-2.31.5c-.66,0-1.41-.04-2.25-.12-.84-.08-1.57-.18-2.19-.28l.4-.43c.14,1.01.27,2.14.37,3.39.1,1.25.2,2.52.28,3.8.08,1.28.14,2.49.19,3.61s.06,2.08.06,2.87c0,1.92-.22,3.36-.67,4.32s-1.21,1.44-2.31,1.44c-.76,0-1.32-.34-1.67-1.02-.35-.68-.53-1.73-.53-3.13,0-1.03.06-2.22.17-3.55.11-1.33.26-2.71.45-4.14.19-1.43.4-2.79.64-4.09.24-1.3.48-2.44.73-3.41l.56.34c-.46.17-.99.33-1.61.48-.62.16-1.24.28-1.86.37-.62.09-1.17.14-1.64.14-.95,0-1.62-.14-2-.42-.38-.28-.57-.67-.57-1.16s.17-.87.51-1.18c.34-.31.84-.61,1.5-.9.91-.37,2.05-.69,3.41-.95,1.36-.26,2.85-.39,4.46-.39Z"/></g></svg>